<svg width="97" height="29" viewBox="0 0 97 29" fill="none" xmlns="http://www.w3.org/2000/svg">
<path d="M94.2458 14.344C94.2458 13.8285 94.6492 13.4106 95.147 13.4106C95.6447 13.4106 96.0482 13.8285 96.0482 14.344V21.0644C96.0482 21.5799 95.6447 21.9978 95.147 21.9978C94.6492 21.9978 94.2458 21.5799 94.2458 21.0644V14.344Z" fill="#D80621"/>
<path d="M94.4407 21.606L91.8688 18.0289C92.886 17.0727 93.5248 15.6923 93.5248 14.1573C93.5248 11.2705 91.2654 8.93033 88.4782 8.93033C85.691 8.93033 83.4315 11.2705 83.4315 14.1573C83.4315 17.0441 85.691 19.3843 88.4782 19.3843C88.925 19.3843 89.3582 19.3242 89.7708 19.2113L91.3534 21.4125C90.4669 21.7898 89.496 21.9978 88.4782 21.9978C84.2974 21.9978 80.9082 18.4875 80.9082 14.1573C80.9082 9.82714 84.2974 6.31683 88.4782 6.31683C92.5995 6.31683 95.9515 9.72794 96.0461 13.973L96.0482 13.9706V20.131C96.0482 21.4378 94.7865 21.9978 94.6062 21.8111C94.5837 21.7878 94.5256 21.7155 94.4407 21.606Z" fill="#D80621"/>
<path d="M85.1639 13.3328C84.8655 13.1889 84.7332 12.8193 84.9062 12.5293C85.2215 12.001 85.626 11.5337 86.1019 11.1506C86.5778 10.7674 87.1148 10.4767 87.6868 10.2906C88.0009 10.1884 88.3141 10.4124 88.375 10.7474C88.436 11.0824 88.2208 11.4007 87.9105 11.5147C87.5235 11.6569 87.1597 11.8627 86.8334 12.1253C86.5072 12.388 86.2249 12.7024 85.9964 13.0558C85.8132 13.3391 85.4623 13.4766 85.1639 13.3328Z" fill="#D80621"/>
<path d="M72.6625 21.9675C72.0889 21.9675 71.6448 21.6513 71.3302 21.0188L65.4458 8.16823C65.2978 7.84242 65.2793 7.52619 65.3903 7.21954C65.5198 6.89372 65.7604 6.64457 66.112 6.47208C66.4265 6.29958 66.7411 6.27084 67.0557 6.38583C67.3888 6.50082 67.6386 6.72123 67.8051 7.04704L73.3009 19.3226H71.9686L77.4089 7.04704C77.5754 6.72123 77.8252 6.50082 78.1583 6.38583C78.5099 6.27084 78.8615 6.29958 79.2131 6.47208C79.5461 6.6254 79.7682 6.86497 79.8792 7.19079C79.9902 7.5166 79.9717 7.84242 79.8237 8.16823L73.9393 21.0188C73.6617 21.6513 73.2361 21.9675 72.6625 21.9675Z" fill="#D80621"/>
<path fill-rule="evenodd" clip-rule="evenodd" d="M56.7913 21.9978C60.9721 21.9978 64.3613 18.4875 64.3613 14.1573C64.3613 9.82714 60.9721 6.31683 56.7913 6.31683C52.6105 6.31683 49.2213 9.82714 49.2213 14.1573C49.2213 18.4875 52.6105 21.9978 56.7913 21.9978ZM56.7913 19.3843C59.5785 19.3843 61.8379 17.0441 61.8379 14.1573C61.8379 11.2705 59.5785 8.93033 56.7913 8.93033C54.0041 8.93033 51.7446 11.2705 51.7446 14.1573C51.7446 17.0441 54.0041 19.3843 56.7913 19.3843Z" fill="#D80621"/>
<path d="M61.8379 13.9706C61.8379 13.2489 62.4028 12.6639 63.0996 12.6639C63.7964 12.6639 64.3613 13.2489 64.3613 13.9706V20.6911C64.3613 21.4128 63.7964 21.9978 63.0996 21.9978C62.4028 21.9978 61.8379 21.4128 61.8379 20.6911V13.9706Z" fill="#D80621"/>
<path d="M38.5172 29C38.3321 29 38.1101 28.9425 37.851 28.8275C37.0368 28.4442 36.8148 27.8405 37.1848 27.0164L45.6506 7.20867C46.0207 6.40371 46.6036 6.17372 47.3993 6.51871C48.232 6.88285 48.4633 7.48657 48.0932 8.32986L39.5997 28.1088C39.3776 28.7029 39.0168 29 38.5172 29ZM41.7924 21.4679C41.4408 21.6212 41.1078 21.6404 40.7932 21.5254C40.4971 21.3912 40.2566 21.1421 40.0715 20.7779L33.7153 8.27236C33.5302 7.90822 33.5025 7.56323 33.632 7.23742C33.78 6.89244 34.0298 6.64328 34.3814 6.48996C34.733 6.33663 35.0661 6.32705 35.3807 6.46121C35.6952 6.5762 35.9358 6.81577 36.1023 7.17992L42.181 19.6855C42.3661 20.0496 42.4308 20.4042 42.3753 20.7492C42.3383 21.075 42.144 21.3146 41.7924 21.4679Z" fill="#D80621"/>
<path fill-rule="evenodd" clip-rule="evenodd" d="M25.0244 22.028C29.2052 22.028 32.5944 18.5177 32.5944 14.1876C32.5944 9.85737 29.2052 6.34706 25.0244 6.34706C20.8437 6.34706 17.4545 9.85737 17.4545 14.1876C17.4545 18.5177 20.8437 22.028 25.0244 22.028ZM25.0244 19.4145C27.8116 19.4145 30.0711 17.0743 30.0711 14.1876C30.0711 11.3008 27.8116 8.96056 25.0244 8.96056C22.2373 8.96056 19.9778 11.3008 19.9778 14.1876C19.9778 17.0743 22.2373 19.4145 25.0244 19.4145Z" fill="#D80621"/>
<path d="M17.4545 1.30675C17.4545 0.585051 18.0193 0 18.7161 0C19.4129 0 19.9778 0.585051 19.9778 1.30675V14.7476C19.9778 15.4693 19.4129 16.0543 18.7161 16.0543C18.0193 16.0543 17.4545 15.4693 17.4545 14.7476V1.30675Z" fill="#D80621"/>
<path fill-rule="evenodd" clip-rule="evenodd" d="M7.61819 21.9978C11.799 21.9978 15.1882 18.4875 15.1882 14.1573C15.1882 9.82714 11.799 6.31683 7.61819 6.31683C3.43741 6.31683 0.0482178 9.82714 0.0482178 14.1573C0.0482178 18.4875 3.43741 21.9978 7.61819 21.9978ZM7.61819 19.3843C10.4054 19.3843 12.6648 17.0441 12.6648 14.1573C12.6648 11.2705 10.4054 8.93033 7.61819 8.93033C4.831 8.93033 2.57154 11.2705 2.57154 14.1573C2.57154 17.0441 4.831 19.3843 7.61819 19.3843Z" fill="#D80621"/>
</svg>
