<svg width="29" height="29" viewBox="0 0 29 29" fill="none" xmlns="http://www.w3.org/2000/svg">
<path d="M12.6822 4.78005C12.5466 5.1354 12.099 5.24782 11.8116 4.99872L11.2018 4.47026C10.8471 4.16281 10.2953 4.41479 10.2953 4.88422V11.0262C10.2953 11.5171 9.69933 11.7602 9.35596 11.4094L6.15239 8.13657C5.82387 7.80094 5.25298 8.00724 5.21491 8.47535L5.1363 9.44171C5.10867 9.7814 4.78087 10.0137 4.45121 9.92715L1.96371 9.27421C1.56064 9.1684 1.19172 9.53353 1.29336 9.93767L1.942 12.5168C2.02437 12.8444 1.79361 13.1677 1.45707 13.1963L0.502247 13.2773C0.0406698 13.3165 -0.166927 13.8753 0.157109 14.2064L7.38108 21.5866C7.57675 21.7865 7.59038 22.1017 7.4127 22.3177L6.67016 23.2206C6.3762 23.5781 6.63048 24.1164 7.09326 24.1164H12.8965C13.1991 24.1164 13.4444 24.3617 13.4444 24.6642V28.2907C13.4444 28.5932 13.6896 28.8385 13.9922 28.8385H14.979C15.2816 28.8385 15.5268 28.5932 15.5268 28.2907V24.6642C15.5268 24.3617 15.7721 24.1164 16.0746 24.1164H21.9287C22.3915 24.1164 22.6458 23.5781 22.3518 23.2206L21.5992 22.3055C21.4216 22.0895 21.4352 21.7743 21.6309 21.5744L28.8429 14.2064C29.1669 13.8753 28.9593 13.3165 28.4977 13.2773L27.5429 13.1963C27.2064 13.1677 26.9756 12.8444 27.058 12.5168L27.7066 9.93767C27.8083 9.53354 27.4394 9.1684 27.0363 9.27421L24.5488 9.92715C24.2191 10.0137 23.8913 9.7814 23.8637 9.44171L23.7851 8.47535C23.747 8.00724 23.1761 7.80094 22.8476 8.13657L19.666 11.387C19.3226 11.7378 18.7267 11.4947 18.7267 11.0038V4.88422C18.7267 4.41479 18.1749 4.16281 17.8201 4.47026L17.2104 4.99872C16.923 5.24782 16.4754 5.1354 16.3398 4.78005L15.0228 1.32859C14.8435 0.85857 14.1785 0.85857 13.9992 1.32859L12.6822 4.78005Z" fill="#D80621"/>
</svg>
